<?xml version="1.0" encoding="utf-8"?>
<!DOCTYPE svg PUBLIC "-//W3C//DTD SVG 1.1//EN" "http://www.w3.org/Graphics/SVG/1.1/DTD/svg11.dtd">
<svg version="1.1" id="logo" xmlns="http://www.w3.org/2000/svg" xmlns:xlink="http://www.w3.org/1999/xlink" x="0px" y="0px"
	 viewBox="0 0 48.5 47.2" enable-background="new 0 0 48.5 47.2" xml:space="preserve">
<path fill="#FC9206" d="M6.3,11.2C6.4,9.9,7.1,9.1,8.4,9c1.8-0.1,3.4-0.8,4.9-1.7c2.2-1.3,4.4-2.7,6.6-4c1.4-0.8,2.9-1.4,4.3-2.1
	c0.9-0.4,1.8-0.4,2.7,0c2.5,1,4.8,2.3,7,3.7c2,1.3,4,2.6,6.3,3.4C41.1,8.7,42,8.9,42.9,9c1.1,0.1,1.9,0.9,1.8,2
	c-0.1,1.8-0.2,3.6-0.4,5.4c-0.4,3.1-1,6.1-1.9,9.1c-1.7,5.6-4.4,10.6-8.5,14.8c-2.2,2.2-4.7,4.1-7.4,5.6c-0.7,0.4-1.3,0.4-2,0
	c-5.1-2.9-9.2-6.9-12.2-12c-2.7-4.6-4.3-9.5-5.1-14.7C6.9,16.6,6.6,13.9,6.3,11.2z"/>
<path id="nuage" fill="#FFFFFF" d="M35.4,19.4c0,0,5.5,0.1,5.6,5.6c0.1,5.6-5.9,5.7-5.9,5.7H16.3c0,0-4.4,0-5.8-3.7s0.3-6,1.3-6.9
	c1-0.9,2.4-1.5,2.4-1.5s0.4-2.2,2.3-3.1c2-0.9,3.5,0,3.5,0s2.1-4.5,7.2-4.5S35.6,15.5,35.4,19.4z"/>
<path id="enveloppe_x5F_bas" fill="#FC9206" d="M32,19.8c0,2.8,0,5.6,0,8.3c-4.3,0-8.6,0-12.9,0c0-2.7,0-5.4,0-8
	c1.7,1.3,3.3,2.5,5,3.8c0.8,0.6,1.6,0.6,2.4,0c1.3-1,2.6-2,3.8-2.9C30.9,20.5,31.5,20.1,32,19.8z"/>
<path id="enveloppe_x5F_haut" fill="#FC9206" d="M19.7,19c3.8,0,7.6,0,11.5,0c0,0-0.1,0.1-0.1,0.1c-1.8,1.3-3.5,2.7-5.3,4
	c-0.3,0.3-0.6,0.2-0.9-0.1c-1.6-1.2-3.2-2.5-4.9-3.7C19.9,19.3,19.8,19.2,19.7,19z"/>
</svg>
